<svg width="43" height="51" viewBox="0 0 43 51" fill="none" xmlns="http://www.w3.org/2000/svg">
<path d="M36.1693 36.0581L21.3554 50.8721L6.54142 36.0581C3.61154 33.1282 1.61627 29.3953 0.807934 25.3314C-0.000404358 21.2675 0.41449 17.0552 2.00015 13.2271C3.58581 9.39898 6.27102 6.12706 9.71622 3.82506C13.1614 1.52306 17.2119 0.294373 21.3554 0.294373C25.4989 0.294373 29.5493 1.52306 32.9945 3.82506C36.4397 6.12706 39.1249 9.39898 40.7106 13.2271C42.2962 17.0552 42.7111 21.2675 41.9028 25.3314C41.0945 29.3953 39.0992 33.1282 36.1693 36.0581ZM21.3554 30.5553C23.8248 30.5553 26.1931 29.5743 27.9393 27.8281C29.6855 26.0819 30.6665 23.7136 30.6665 21.2442C30.6665 18.7747 29.6855 16.4064 27.9393 14.6602C26.1931 12.914 23.8248 11.9331 21.3554 11.9331C18.8859 11.9331 16.5176 12.914 14.7714 14.6602C13.0253 16.4064 12.0443 18.7747 12.0443 21.2442C12.0443 23.7136 13.0253 26.0819 14.7714 27.8281C16.5176 29.5743 18.8859 30.5553 21.3554 30.5553ZM21.3554 25.8997C20.1206 25.8997 18.9365 25.4092 18.0634 24.5361C17.1903 23.663 16.6998 22.4789 16.6998 21.2442C16.6998 20.0094 17.1903 18.8253 18.0634 17.9522C18.9365 17.0791 20.1206 16.5886 21.3554 16.5886C22.5901 16.5886 23.7743 17.0791 24.6473 17.9522C25.5204 18.8253 26.0109 20.0094 26.0109 21.2442C26.0109 22.4789 25.5204 23.663 24.6473 24.5361C23.7743 25.4092 22.5901 25.8997 21.3554 25.8997Z" fill="#F89422"/>
</svg>
